<?xml version="1.0" encoding="UTF-8"?>
<svg version="1.1" viewBox="0 0 171 25" xmlns="http://www.w3.org/2000/svg">
<g fill="none" fill-rule="evenodd">
<path d="m16.478 18.027c-1.2711 0-3.1808 0.68339-4.312 1.3245l-0.10774 0.061041 5.7001-17.444c0.36545-1.1431 1.5369-1.9658 2.7985-1.9658l5.381 9.2114e-4 -5.6788 18.024h-3.7811zm-6.9463-11.012c1.2712 0 3.1328-0.77069 4.264-1.4118l0.10795-0.061179-5.7018 17.449c-0.36554 1.1433-1.5373 1.9664-2.7994 1.9664h-5.4022l5.9496-17.942h3.5818z" fill="#00C6A3"/>
<g transform="translate(36 7)" fill="#F3F3F3">
<path d="m129.03 8.814c1.9882 3.0539 3.9724 6.1014 5.9676 9.166-0.053993 0.007196-0.090068 0.016249-0.12614 0.016249-1.4778 6.964e-4 -2.9554-0.0010445-4.4331 0.0037141-0.12326 3.482e-4 -0.17172-0.053854-0.22319-0.13858-0.94433-1.5563-1.8907-3.1116-2.8366-4.6672-0.323-0.531-0.64575-1.0621-0.96887-1.593-0.031145-0.051301-0.064334-0.10132-0.11292-0.17804-1.3036 2.2025-2.5955 4.3852-3.8877 6.5681h-4.4001c-0.005291-0.0091691-0.009139-0.01358-0.010462-0.018686-0.001323-0.0047587-0.001202-0.010562 4.81e-4 -0.015088 0.003608-0.010214 0.008057-0.020195 0.013108-0.029829 0.00505-0.0097495 0.010702-0.019151 0.016835-0.02832 1.9638-2.9846 3.9277-5.9692 5.8915-8.954 0.002886-0.0045266 0.004569-0.0099816 0.006373-0.014972 0.002044-0.0051069 0.003487-0.010214 0.009861-0.029132-1.9166-2.9483-3.8383-5.9049-5.7707-8.8777 0.054715-0.008821 0.09091-0.019847 0.12723-0.019847 1.4778-9.2852e-4 2.9554 9.2852e-4 4.4332-0.0037141 0.12446-4.6426e-4 0.17052 0.058033 0.2215 0.14183 1.0292 1.6915 2.0604 3.3821 3.0909 5.0731 0.17761 0.29121 0.35438 0.58276 0.53235 0.87374 0.027778 0.045614 0.059524 0.08937 0.10306 0.15437 0.042209-0.064764 0.075518-0.11224 0.10486-0.1618 1.1628-1.9622 2.3254-3.9245 3.488-5.8868 0.022367-0.037837 0.047139-0.074746 0.06674-0.11374 0.027778-0.055015 0.069866-0.083799 0.13709-0.07788 0.023089 0.0020892 0.046538 1.1607e-4 0.069867 1.1607e-4 1.3671 0 2.7343-1.1607e-4 4.1015 2.3213e-4 0.045455 1.1607e-4 0.09091 0.0042944 0.16739 0.0081246-0.2749 0.4378-0.55448 0.85006-0.82673 1.2665-0.27453 0.41981-0.55075 0.83869-0.82637 1.258-0.27562 0.41923-0.55159 0.83822-0.82721 1.2575-0.27249 0.41459-0.54474 0.82952-0.81723 1.2441-0.27574 0.41923-0.55159 0.83834-0.82733 1.2576-0.27562 0.41923-0.55123 0.83846-0.82673 1.2577-0.27514 0.41888-0.54991 0.83788-0.82805 1.2614"/>
<path d="m100 18v-17.966c0.12533-0.035307 12.681-0.047037 12.925-0.014053 0.033161 0.11661 0.044136 3.0377 0.009795 3.2812-0.073402 0.0030196-0.1507 0.0088267-0.22811 0.0089428-2.8316 4.6457e-4 -5.6631 3.4843e-4 -8.4949 3.4843e-4h-0.24546v4.0159h6.949v3.1046h-6.9254c-0.040596 0.13507-0.049564 4.074-0.011093 4.2741h9.021v3.2955h-13z"/>
<path d="m84.086 3.2306v11.555c0.059335 0.0039472 0.10892 0.0101 0.15862 0.0101 0.92645 4.644e-4 1.853 0.0033667 2.7795-0.0016253 0.3868-0.0020896 0.77077-0.041793 1.1493-0.12306 0.94408-0.20293 1.6642-0.69179 2.1354-1.5021 0.14887-0.2561 0.26812-0.52357 0.35766-0.80336 0.16825-0.52648 0.22982-1.0672 0.23147-1.6147 0.0029374-1.08 0.0027024-2.1601-3.525e-4 -3.2401-8.225e-4 -0.28059-0.0069322-0.56188-0.028904-0.84155-0.040183-0.50895-0.15545-1.0029-0.37093-1.473-0.42016-0.91631-1.1204-1.5317-2.1449-1.7964-0.45776-0.1183-0.92575-0.16717-1.399-0.16845-0.89802-0.0023218-1.7963-9.2873e-4 -2.6943-9.2873e-4h-0.17354zm-4.0865 14.769v-17.986c0.052638-0.0044115 0.10175-0.011957 0.15075-0.011957 2.3927-2.3218e-4 4.7852-0.0054563 7.178 0.0029023 1.0438 0.0035988 2.0731 0.12584 3.0699 0.43976 1.1613 0.36592 2.1743 0.94777 2.9705 1.8443 0.69969 0.78803 1.1343 1.6994 1.3833 2.6957 0.15556 0.6219 0.24075 1.2533 0.24251 1.8924 0.0038774 1.4794 0.01034 2.9588-0.0031723 4.4383-0.0085772 0.9516-0.18341 1.8798-0.55528 2.7675-0.62602 1.4947-1.7359 2.5467-3.2746 3.1991-0.7891 0.33446-1.6177 0.53054-2.4741 0.62922-0.59335 0.068378-1.1887 0.089275-1.7858 0.088926-2.2278-0.001277-4.4557-5.804e-4 -6.6835-5.804e-4h-0.21854z"/>
<path d="m68.429 11.661c-0.049388-0.26361-2.4624-7.2251-2.559-7.3522-0.2276 0.62385-0.42774 1.232-0.63848 1.837-0.21233 0.60975-0.41949 1.221-0.62949 1.8313-0.21184 0.61552-0.42467 1.2307-0.63663 1.8462-0.2095 0.60801-0.41851 1.2161-0.63232 1.8377h5.0959zm-6.1152 2.9574c-0.38341 1.127-0.76533 2.2499-1.15 3.3808h-4.164c2.1975-6.0069 4.3906-12.001 6.585-18h4.8297c2.1934 5.9955 4.3863 11.989 6.5853 18h-4.3834c-0.38168-1.1214-0.76546-2.2491-1.1508-3.3812h-7.1518z"/>
<path d="m43.073 8.4452h0.22028c0.98037 0 1.9607 0.0022055 2.9411-0.001509 0.2732-9.2861e-4 0.54723-0.010331 0.81937-0.032153 0.32978-0.026582 0.65319-0.090888 0.96151-0.21045 0.78472-0.30424 1.2113-0.86942 1.2694-1.6579 0.038776-0.52629 0.034651-1.0587 2.358e-4 -1.5856-0.05068-0.77482-0.48088-1.4816-1.4711-1.7445-0.39802-0.10563-0.80358-0.15113-1.2156-0.15148-1.1229-9.2862e-4 -2.2459-9.2862e-4 -3.3687-4.6431e-4 -0.049384 0-0.098768 0.0065003-0.1564 0.010679v5.3734zm10.927 9.5515h-0.20944c-1.3398 0-2.6797-0.0019733-4.0195 0.0032502-0.13318 4.643e-4 -0.20072-0.038306-0.2633-0.14893-1.1756-2.0786-2.3558-4.155-3.535-6.2317-0.02428-0.042832-0.050563-0.084736-0.072485-0.12861-0.025104-0.049797-0.063527-0.07278-0.1221-0.068137-0.028287 0.0024376-0.056927 2.322e-4 -0.08545 2.322e-4 -0.80959-1.161e-4 -1.6193-1.161e-4 -2.4289-1.161e-4h-0.19494c-0.0015322 0.19013-0.0036537 0.37133-0.0043609 0.5523-8.25e-4 0.18363-2.357e-4 0.36715-2.357e-4 0.55067v0.53465 0.55067 0.55079 0.55067 0.53454 0.55079 0.55067 0.55067 0.53465 0.55415h-4.033c-0.0048323-0.0040627-0.0093111-0.007429-0.0132-0.011492-0.0037716-0.0038305-0.0094289-0.0080093-0.0097825-0.01242-0.0035358-0.037493-0.0082503-0.075218-0.0082503-0.11271 0.0011786-5.9336 0.0028287-11.867 0.005068-17.801 0-0.0091701 0.0095468-0.01834 0.022158-0.041207 0.047027-0.0024376 0.10242-0.0077772 0.15782-0.0077772 2.7139-3.4823e-4 5.4279-0.0035984 8.1418 0.0017412 0.92109 0.0017412 1.831 0.095996 2.7108 0.37586 1.1582 0.36843 2.0741 1.023 2.6825 2.0387 0.34251 0.5718 0.53851 1.1908 0.60039 1.8423 0.03913 0.41312 0.038659 0.82984 0.045966 1.2452 0.0064824 0.36704 0.010136 0.73465-0.0040073 1.1013-0.078024 2.0345-1.1203 3.4475-3.0805 4.2639-0.10867 0.045154-0.22017 0.084272-0.35311 0.13511 1.3545 2.3261 2.7033 4.6425 4.0712 6.9914z"/>
<path d="m24.884 4.3326c-0.079141 0.098782-2.5165 7.1332-2.5399 7.3256h5.0963c-0.84047-2.4356-1.676-4.8578-2.5129-7.2796-0.0059171-0.017099-0.027736-0.029808-0.043515-0.045983m9.116 13.667h-4.3817c-0.021326-0.056381-0.043515-0.1108-0.062376-0.16614-0.34763-1.0212-0.69476-2.0428-1.0423-3.0642-0.054856-0.16129-0.055349-0.16186-0.24482-0.16186-2.2602-2.311e-4 -4.5204-1.156e-4 -6.7807-1.156e-4h-0.18417c-0.38708 1.1364-0.76947 2.2592-1.154 3.3885h-4.1348c-0.0028353-0.0035815-0.0066567-0.0072787-0.0091222-0.011553-0.002712-0.004737-0.0069032-0.010514-0.0059171-0.01502 0.004068-0.020912 0.0078895-0.042286 0.015286-0.062504 2.1811-5.9546 4.3625-11.909 6.5444-17.863 0.005424-0.014557 0.020463-0.026111 0.034886-0.043672h4.8121c2.1939 5.9892 4.389 11.982 6.5932 18"/>
<path d="m4.1311 8.4169c0.046497 0.0045297 0.074727 0.009524 0.10296 0.009524 0.99862-2.3229e-4 1.9972 0.0037167 2.9957-0.0040651 0.34968-0.0026714 0.69734-0.045413 1.0388-0.12486 0.77242-0.17956 1.2817-0.62231 1.5141-1.3403 0.077337-0.2388 0.11316-0.48502 0.11351-0.73509 2.3723e-4 -0.38363 0.0039143-0.53497-0.0013048-0.9186-0.0022537-0.16702-0.0087775-0.33589-0.037601-0.50024-0.14768-0.84333-0.62783-1.3037-1.5218-1.5443-0.39522-0.10639-0.79982-0.14634-1.2074-0.14913-0.9469-0.0062719-1.8939-0.0023229-2.8408-0.0017422-0.049344 0-0.098687 0.0075495-0.15622 0.012311v5.2965zm-0.0097264 3.116v2.3962 2.0423c0 0.67341 2.3722e-4 1.3467-1.1862e-4 2.0286h-4.0607c-0.17602-0.64217 0.097857-18.529-0.0069983-17.988 0.04626-0.0031359 0.096078-0.0092917 0.14601-0.0092917 2.5824-3.4844e-4 5.1647-0.0042974 7.7471 0.0022068 0.92223 0.0024391 1.8311 0.11034 2.7038 0.41046 1.1692 0.4021 2.0941 1.0831 2.7003 2.1201 0.3511 0.60047 0.5397 1.1336 0.59972 1.8132 0.076625 0.86807 0.04709 1.5066 0.024435 2.3758-0.017555 0.66819-0.1631 1.3191-0.45168 1.9346-0.55132 1.1761-1.4983 1.9565-2.7555 2.4195-0.5907 0.21766-1.2058 0.34844-1.8376 0.39548-0.44552 0.033102-0.89317 0.052962-1.3401 0.056098-1.0788 0.008014-2.1577 0.0026713-3.2365 0.0026713h-0.23213z"/>
</g>
</g>
</svg>
